<svg viewBox="-14 -14 128 128" xmlns="http://www.w3.org/2000/svg" fill="none"><defs><linearGradient id="fd" x1="0" y1="0" x2="1" y2="1"><stop offset="0" stop-color="#FFFFFF"/><stop offset=".5" stop-color="#D3DEDE"/><stop offset="1" stop-color="#8A9E9E"/></linearGradient><linearGradient id="fl" x1="0" y1="1" x2="1" y2="0"><stop offset="0" stop-color="#D2DDDD"/><stop offset=".55" stop-color="#7F9292"/><stop offset="1" stop-color="#3A4646"/></linearGradient><linearGradient id="fr" x1="0" y1="0" x2="0" y2="1"><stop offset="0" stop-color="#C3D0D0"/><stop offset=".6" stop-color="#5E6E6E"/><stop offset="1" stop-color="#2E3838"/></linearGradient></defs><rect x="-14" y="-14" width="128" height="128" rx="28" fill="#0A0C0C"/><path fill="url(#fl)" d="M9 24C9 19 11 17 15 15L33 25V77C33 82 31 85 27 87L14 95C11 97 9 96 9 92Z"/><path fill="url(#fr)" d="M67 23C67 18 69 16 73 14L87 6C90 4 92 5 92 9V74L67 46Z"/><path fill="url(#fd)" d="M9 22C13 15 21 9 28 9C32 9 35 11 38 14L89 72C92 75 93 79 91 83C88 89 81 93 75 93C71 93 68 91 66 88L15 28C13 25 11 23 9 22Z"/></svg>